<svg xmlns="http://www.w3.org/2000/svg" width="1280" height="672" style="cursor: move;"><g transform="translate(599.9675778750151,144.7896319713309) scale(0.5)"><rect class="rect" id="0_0" width="128" height="128" x="-119" y="179" style="fill: rgb(160, 160, 160); stroke: black; stroke-width: 1.77; opacity: 0.9;"></rect><rect class="rect" id="0_1" width="128" height="128" x="-113" y="185" style="fill: rgb(224, 224, 224); stroke: black; stroke-width: 1.77; opacity: 0.9;"></rect><rect class="rect" id="0_2" width="128" height="128" x="-107" y="191" style="fill: rgb(160, 160, 160); stroke: black; stroke-width: 1.77; opacity: 0.9;"></rect><rect class="rect" id="0_3" width="128" height="128" x="-101" y="197" style="fill: rgb(224, 224, 224); stroke: black; stroke-width: 1.77; opacity: 0.9;"></rect><rect class="rect" id="0_4" width="128" height="128" x="-95" y="203" style="fill: rgb(160, 160, 160); stroke: black; stroke-width: 1.77; opacity: 0.9;"></rect><rect class="rect" id="0_5" width="128" height="128" x="-89" y="209" style="fill: rgb(224, 224, 224); stroke: black; stroke-width: 1.77; opacity: 0.9;"></rect><rect class="rect" id="0_6" width="128" height="128" x="-83" y="215" style="fill: rgb(160, 160, 160); stroke: black; stroke-width: 1.77; opacity: 0.9;"></rect><rect class="rect" id="0_7" width="128" height="128" x="-77" y="221" style="fill: rgb(224, 224, 224); stroke: black; stroke-width: 1.77; opacity: 0.9;"></rect><rect class="rect" id="0_8" width="128" height="128" x="-71" y="227" style="fill: rgb(160, 160, 160); stroke: black; stroke-width: 1.77; opacity: 0.9;"></rect><rect class="rect" id="0_9" width="128" height="128" x="-65" y="233" style="fill: rgb(224, 224, 224); stroke: black; stroke-width: 1.77; opacity: 0.9;"></rect><rect class="rect" id="0_10" width="128" height="128" x="-59" y="239" style="fill: rgb(160, 160, 160); stroke: black; stroke-width: 1.77; opacity: 0.9;"></rect><rect class="rect" id="0_11" width="128" height="128" x="-53" y="245" style="fill: rgb(224, 224, 224); stroke: black; stroke-width: 1.77; opacity: 0.9;"></rect><rect class="rect" id="0_12" width="128" height="128" x="-47" y="251" style="fill: rgb(160, 160, 160); stroke: black; stroke-width: 1.77; opacity: 0.9;"></rect><rect class="rect" id="0_13" width="128" height="128" x="-41" y="257" style="fill: rgb(224, 224, 224); stroke: black; stroke-width: 1.77; opacity: 0.9;"></rect><rect class="rect" id="0_14" width="128" height="128" x="-35" y="263" style="fill: rgb(160, 160, 160); stroke: black; stroke-width: 1.77; opacity: 0.9;"></rect><rect class="rect" id="0_15" width="128" height="128" x="-29" y="269" style="fill: rgb(224, 224, 224); stroke: black; stroke-width: 1.77; opacity: 0.9;"></rect><rect class="rect" id="0_16" width="128" height="128" x="-23" y="275" style="fill: rgb(160, 160, 160); stroke: black; stroke-width: 1.77; opacity: 0.9;"></rect><rect class="rect" id="0_17" width="128" height="128" x="-17" y="281" style="fill: rgb(224, 224, 224); stroke: black; stroke-width: 1.77; opacity: 0.9;"></rect><rect class="rect" id="0_18" width="128" height="128" x="-11" y="287" style="fill: rgb(160, 160, 160); stroke: black; stroke-width: 1.77; opacity: 0.9;"></rect><rect class="rect" id="0_19" width="128" height="128" x="-5" y="293" style="fill: rgb(224, 224, 224); stroke: black; stroke-width: 1.77; opacity: 0.9;"></rect><rect class="rect" id="0_20" width="128" height="128" x="1" y="299" style="fill: rgb(160, 160, 160); stroke: black; stroke-width: 1.77; opacity: 0.9;"></rect><rect class="rect" id="0_21" width="128" height="128" x="7" y="305" style="fill: rgb(224, 224, 224); stroke: black; stroke-width: 1.77; opacity: 0.9;"></rect><rect class="rect" id="0_22" width="128" height="128" x="13" y="311" style="fill: rgb(160, 160, 160); stroke: black; stroke-width: 1.77; opacity: 0.9;"></rect><rect class="rect" id="0_23" width="128" height="128" x="19" y="317" style="fill: rgb(224, 224, 224); stroke: black; stroke-width: 1.77; opacity: 0.9;"></rect><rect class="rect" id="0_24" width="128" height="128" x="25" y="323" style="fill: rgb(160, 160, 160); stroke: black; stroke-width: 1.77; opacity: 0.9;"></rect><rect class="rect" id="0_25" width="128" height="128" x="31" y="329" style="fill: rgb(224, 224, 224); stroke: black; stroke-width: 1.77; opacity: 0.9;"></rect><rect class="rect" id="0_26" width="128" height="128" x="37" y="335" style="fill: rgb(160, 160, 160); stroke: black; stroke-width: 1.77; opacity: 0.9;"></rect><rect class="rect" id="0_27" width="128" height="128" x="43" y="341" style="fill: rgb(224, 224, 224); stroke: black; stroke-width: 1.77; opacity: 0.9;"></rect><rect class="rect" id="0_28" width="128" height="128" x="49" y="347" style="fill: rgb(160, 160, 160); stroke: black; stroke-width: 1.77; opacity: 0.9;"></rect><rect class="rect" id="0_29" width="128" height="128" x="55" y="353" style="fill: rgb(224, 224, 224); stroke: black; stroke-width: 1.77; opacity: 0.9;"></rect><rect class="rect" id="0_30" width="128" height="128" x="61" y="359" style="fill: rgb(160, 160, 160); stroke: black; stroke-width: 1.77; opacity: 0.9;"></rect><rect class="rect" id="0_31" width="128" height="128" x="67" y="365" style="fill: rgb(224, 224, 224); stroke: black; stroke-width: 1.77; opacity: 0.9;"></rect><rect class="rect" id="1_0" width="128" height="128" x="95" y="83" style="fill: rgb(160, 160, 160); stroke: black; stroke-width: 1.77; opacity: 0.9;"></rect><rect class="rect" id="1_1" width="128" height="128" x="101" y="89" style="fill: rgb(224, 224, 224); stroke: black; stroke-width: 1.77; opacity: 0.9;"></rect><rect class="rect" id="1_2" width="128" height="128" x="107" y="95" style="fill: rgb(160, 160, 160); stroke: black; stroke-width: 1.77; opacity: 0.9;"></rect><rect class="rect" id="1_3" width="128" height="128" x="113" y="101" style="fill: rgb(224, 224, 224); stroke: black; stroke-width: 1.77; opacity: 0.9;"></rect><rect class="rect" id="1_4" width="128" height="128" x="119" y="107" style="fill: rgb(160, 160, 160); stroke: black; stroke-width: 1.77; opacity: 0.9;"></rect><rect class="rect" id="1_5" width="128" height="128" x="125" y="113" style="fill: rgb(224, 224, 224); stroke: black; stroke-width: 1.77; opacity: 0.9;"></rect><rect class="rect" id="1_6" width="128" height="128" x="131" y="119" style="fill: rgb(160, 160, 160); stroke: black; stroke-width: 1.77; opacity: 0.9;"></rect><rect class="rect" id="1_7" width="128" height="128" x="137" y="125" style="fill: rgb(224, 224, 224); stroke: black; stroke-width: 1.77; opacity: 0.9;"></rect><rect class="rect" id="1_8" width="128" height="128" x="143" y="131" style="fill: rgb(160, 160, 160); stroke: black; stroke-width: 1.77; opacity: 0.9;"></rect><rect class="rect" id="1_9" width="128" height="128" x="149" y="137" style="fill: rgb(224, 224, 224); stroke: black; stroke-width: 1.77; opacity: 0.9;"></rect><rect class="rect" id="1_10" width="128" height="128" x="155" y="143" style="fill: rgb(160, 160, 160); stroke: black; stroke-width: 1.77; opacity: 0.9;"></rect><rect class="rect" id="1_11" width="128" height="128" x="161" y="149" style="fill: rgb(224, 224, 224); stroke: black; stroke-width: 1.77; opacity: 0.9;"></rect><rect class="rect" id="1_12" width="128" height="128" x="167" y="155" style="fill: rgb(160, 160, 160); stroke: black; stroke-width: 1.77; opacity: 0.9;"></rect><rect class="rect" id="1_13" width="128" height="128" x="173" y="161" style="fill: rgb(224, 224, 224); stroke: black; stroke-width: 1.77; opacity: 0.9;"></rect><rect class="rect" id="1_14" width="128" height="128" x="179" y="167" style="fill: rgb(160, 160, 160); stroke: black; stroke-width: 1.77; opacity: 0.9;"></rect><rect class="rect" id="1_15" width="128" height="128" x="185" y="173" style="fill: rgb(224, 224, 224); stroke: black; stroke-width: 1.77; opacity: 0.9;"></rect><rect class="rect" id="1_16" width="128" height="128" x="191" y="179" style="fill: rgb(160, 160, 160); stroke: black; stroke-width: 1.77; opacity: 0.9;"></rect><rect class="rect" id="1_17" width="128" height="128" x="197" y="185" style="fill: rgb(224, 224, 224); stroke: black; stroke-width: 1.77; opacity: 0.9;"></rect><rect class="rect" id="1_18" width="128" height="128" x="203" y="191" style="fill: rgb(160, 160, 160); stroke: black; stroke-width: 1.77; opacity: 0.9;"></rect><rect class="rect" id="1_19" width="128" height="128" x="209" y="197" style="fill: rgb(224, 224, 224); stroke: black; stroke-width: 1.77; opacity: 0.9;"></rect><rect class="rect" id="1_20" width="128" height="128" x="215" y="203" style="fill: rgb(160, 160, 160); stroke: black; stroke-width: 1.77; opacity: 0.9;"></rect><rect class="rect" id="1_21" width="128" height="128" x="221" y="209" style="fill: rgb(224, 224, 224); stroke: black; stroke-width: 1.77; opacity: 0.9;"></rect><rect class="rect" id="1_22" width="128" height="128" x="227" y="215" style="fill: rgb(160, 160, 160); stroke: black; stroke-width: 1.77; opacity: 0.9;"></rect><rect class="rect" id="1_23" width="128" height="128" x="233" y="221" style="fill: rgb(224, 224, 224); stroke: black; stroke-width: 1.77; opacity: 0.9;"></rect><rect class="rect" id="1_24" width="128" height="128" x="239" y="227" style="fill: rgb(160, 160, 160); stroke: black; stroke-width: 1.77; opacity: 0.9;"></rect><rect class="rect" id="1_25" width="128" height="128" x="245" y="233" style="fill: rgb(224, 224, 224); stroke: black; stroke-width: 1.77; opacity: 0.9;"></rect><rect class="rect" id="1_26" width="128" height="128" x="251" y="239" style="fill: rgb(160, 160, 160); stroke: black; stroke-width: 1.77; opacity: 0.9;"></rect><rect class="rect" id="1_27" width="128" height="128" x="257" y="245" style="fill: rgb(224, 224, 224); stroke: black; stroke-width: 1.77; opacity: 0.9;"></rect><rect class="rect" id="1_28" width="128" height="128" x="263" y="251" style="fill: rgb(160, 160, 160); stroke: black; stroke-width: 1.77; opacity: 0.9;"></rect><rect class="rect" id="1_29" width="128" height="128" x="269" y="257" style="fill: rgb(224, 224, 224); stroke: black; stroke-width: 1.77; opacity: 0.9;"></rect><rect class="rect" id="1_30" width="128" height="128" x="275" y="263" style="fill: rgb(160, 160, 160); stroke: black; stroke-width: 1.77; opacity: 0.9;"></rect><rect class="rect" id="1_31" width="128" height="128" x="281" y="269" style="fill: rgb(224, 224, 224); stroke: black; stroke-width: 1.77; opacity: 0.9;"></rect><rect class="rect" id="1_32" width="128" height="128" x="287" y="275" style="fill: rgb(160, 160, 160); stroke: black; stroke-width: 1.77; opacity: 0.9;"></rect><rect class="rect" id="1_33" width="128" height="128" x="293" y="281" style="fill: rgb(224, 224, 224); stroke: black; stroke-width: 1.77; opacity: 0.9;"></rect><rect class="rect" id="1_34" width="128" height="128" x="299" y="287" style="fill: rgb(160, 160, 160); stroke: black; stroke-width: 1.77; opacity: 0.9;"></rect><rect class="rect" id="1_35" width="128" height="128" x="305" y="293" style="fill: rgb(224, 224, 224); stroke: black; stroke-width: 1.77; opacity: 0.9;"></rect><rect class="rect" id="1_36" width="128" height="128" x="311" y="299" style="fill: rgb(160, 160, 160); stroke: black; stroke-width: 1.77; opacity: 0.9;"></rect><rect class="rect" id="1_37" width="128" height="128" x="317" y="305" style="fill: rgb(224, 224, 224); stroke: black; stroke-width: 1.77; opacity: 0.9;"></rect><rect class="rect" id="1_38" width="128" height="128" x="323" y="311" style="fill: rgb(160, 160, 160); stroke: black; stroke-width: 1.77; opacity: 0.9;"></rect><rect class="rect" id="1_39" width="128" height="128" x="329" y="317" style="fill: rgb(224, 224, 224); stroke: black; stroke-width: 1.77; opacity: 0.9;"></rect><rect class="rect" id="1_40" width="128" height="128" x="335" y="323" style="fill: rgb(160, 160, 160); stroke: black; stroke-width: 1.77; opacity: 0.9;"></rect><rect class="rect" id="1_41" width="128" height="128" x="341" y="329" style="fill: rgb(224, 224, 224); stroke: black; stroke-width: 1.77; opacity: 0.9;"></rect><rect class="rect" id="1_42" width="128" height="128" x="347" y="335" style="fill: rgb(160, 160, 160); stroke: black; stroke-width: 1.77; opacity: 0.9;"></rect><rect class="rect" id="1_43" width="128" height="128" x="353" y="341" style="fill: rgb(224, 224, 224); stroke: black; stroke-width: 1.77; opacity: 0.9;"></rect><rect class="rect" id="1_44" width="128" height="128" x="359" y="347" style="fill: rgb(160, 160, 160); stroke: black; stroke-width: 1.77; opacity: 0.9;"></rect><rect class="rect" id="1_45" width="128" height="128" x="365" y="353" style="fill: rgb(224, 224, 224); stroke: black; stroke-width: 1.77; opacity: 0.9;"></rect><rect class="rect" id="1_46" width="128" height="128" x="371" y="359" style="fill: rgb(160, 160, 160); stroke: black; stroke-width: 1.77; opacity: 0.9;"></rect><rect class="rect" id="1_47" width="128" height="128" x="377" y="365" style="fill: rgb(224, 224, 224); stroke: black; stroke-width: 1.77; opacity: 0.9;"></rect><rect class="rect" id="1_48" width="128" height="128" x="383" y="371" style="fill: rgb(160, 160, 160); stroke: black; stroke-width: 1.77; opacity: 0.9;"></rect><rect class="rect" id="1_49" width="128" height="128" x="389" y="377" style="fill: rgb(224, 224, 224); stroke: black; stroke-width: 1.77; opacity: 0.9;"></rect><rect class="rect" id="1_50" width="128" height="128" x="395" y="383" style="fill: rgb(160, 160, 160); stroke: black; stroke-width: 1.77; opacity: 0.9;"></rect><rect class="rect" id="1_51" width="128" height="128" x="401" y="389" style="fill: rgb(224, 224, 224); stroke: black; stroke-width: 1.77; opacity: 0.9;"></rect><rect class="rect" id="1_52" width="128" height="128" x="407" y="395" style="fill: rgb(160, 160, 160); stroke: black; stroke-width: 1.77; opacity: 0.9;"></rect><rect class="rect" id="1_53" width="128" height="128" x="413" y="401" style="fill: rgb(224, 224, 224); stroke: black; stroke-width: 1.77; opacity: 0.9;"></rect><rect class="rect" id="1_54" width="128" height="128" x="419" y="407" style="fill: rgb(160, 160, 160); stroke: black; stroke-width: 1.77; opacity: 0.9;"></rect><rect class="rect" id="1_55" width="128" height="128" x="425" y="413" style="fill: rgb(224, 224, 224); stroke: black; stroke-width: 1.77; opacity: 0.9;"></rect><rect class="rect" id="1_56" width="128" height="128" x="431" y="419" style="fill: rgb(160, 160, 160); stroke: black; stroke-width: 1.77; opacity: 0.9;"></rect><rect class="rect" id="1_57" width="128" height="128" x="437" y="425" style="fill: rgb(224, 224, 224); stroke: black; stroke-width: 1.77; opacity: 0.9;"></rect><rect class="rect" id="1_58" width="128" height="128" x="443" y="431" style="fill: rgb(160, 160, 160); stroke: black; stroke-width: 1.77; opacity: 0.9;"></rect><rect class="rect" id="1_59" width="128" height="128" x="449" y="437" style="fill: rgb(224, 224, 224); stroke: black; stroke-width: 1.77; opacity: 0.9;"></rect><rect class="rect" id="1_60" width="128" height="128" x="455" y="443" style="fill: rgb(160, 160, 160); stroke: black; stroke-width: 1.77; opacity: 0.9;"></rect><rect class="rect" id="1_61" width="128" height="128" x="461" y="449" style="fill: rgb(224, 224, 224); stroke: black; stroke-width: 1.77; opacity: 0.9;"></rect><rect class="rect" id="1_62" width="128" height="128" x="467" y="455" style="fill: rgb(160, 160, 160); stroke: black; stroke-width: 1.77; opacity: 0.9;"></rect><rect class="rect" id="1_63" width="128" height="128" x="473" y="461" style="fill: rgb(224, 224, 224); stroke: black; stroke-width: 1.77; opacity: 0.9;"></rect><rect class="rect" id="2_0" width="64" height="64" x="501" y="115" style="fill: rgb(160, 160, 160); stroke: black; stroke-width: 1.77; opacity: 0.9;"></rect><rect class="rect" id="2_1" width="64" height="64" x="507" y="121" style="fill: rgb(224, 224, 224); stroke: black; stroke-width: 1.77; opacity: 0.9;"></rect><rect class="rect" id="2_2" width="64" height="64" x="513" y="127" style="fill: rgb(160, 160, 160); stroke: black; stroke-width: 1.77; opacity: 0.9;"></rect><rect class="rect" id="2_3" width="64" height="64" x="519" y="133" style="fill: rgb(224, 224, 224); stroke: black; stroke-width: 1.77; opacity: 0.9;"></rect><rect class="rect" id="2_4" width="64" height="64" x="525" y="139" style="fill: rgb(160, 160, 160); stroke: black; stroke-width: 1.77; opacity: 0.9;"></rect><rect class="rect" id="2_5" width="64" height="64" x="531" y="145" style="fill: rgb(224, 224, 224); stroke: black; stroke-width: 1.77; opacity: 0.9;"></rect><rect class="rect" id="2_6" width="64" height="64" x="537" y="151" style="fill: rgb(160, 160, 160); stroke: black; stroke-width: 1.77; opacity: 0.9;"></rect><rect class="rect" id="2_7" width="64" height="64" x="543" y="157" style="fill: rgb(224, 224, 224); stroke: black; stroke-width: 1.77; opacity: 0.9;"></rect><rect class="rect" id="2_8" width="64" height="64" x="549" y="163" style="fill: rgb(160, 160, 160); stroke: black; stroke-width: 1.77; opacity: 0.9;"></rect><rect class="rect" id="2_9" width="64" height="64" x="555" y="169" style="fill: rgb(224, 224, 224); stroke: black; stroke-width: 1.77; opacity: 0.9;"></rect><rect class="rect" id="2_10" width="64" height="64" x="561" y="175" style="fill: rgb(160, 160, 160); stroke: black; stroke-width: 1.77; opacity: 0.9;"></rect><rect class="rect" id="2_11" width="64" height="64" x="567" y="181" style="fill: rgb(224, 224, 224); stroke: black; stroke-width: 1.77; opacity: 0.9;"></rect><rect class="rect" id="2_12" width="64" height="64" x="573" y="187" style="fill: rgb(160, 160, 160); stroke: black; stroke-width: 1.77; opacity: 0.9;"></rect><rect class="rect" id="2_13" width="64" height="64" x="579" y="193" style="fill: rgb(224, 224, 224); stroke: black; stroke-width: 1.77; opacity: 0.9;"></rect><rect class="rect" id="2_14" width="64" height="64" x="585" y="199" style="fill: rgb(160, 160, 160); stroke: black; stroke-width: 1.77; opacity: 0.9;"></rect><rect class="rect" id="2_15" width="64" height="64" x="591" y="205" style="fill: rgb(224, 224, 224); stroke: black; stroke-width: 1.77; opacity: 0.9;"></rect><rect class="rect" id="2_16" width="64" height="64" x="597" y="211" style="fill: rgb(160, 160, 160); stroke: black; stroke-width: 1.77; opacity: 0.9;"></rect><rect class="rect" id="2_17" width="64" height="64" x="603" y="217" style="fill: rgb(224, 224, 224); stroke: black; stroke-width: 1.77; opacity: 0.9;"></rect><rect class="rect" id="2_18" width="64" height="64" x="609" y="223" style="fill: rgb(160, 160, 160); stroke: black; stroke-width: 1.77; opacity: 0.9;"></rect><rect class="rect" id="2_19" width="64" height="64" x="615" y="229" style="fill: rgb(224, 224, 224); stroke: black; stroke-width: 1.77; opacity: 0.9;"></rect><rect class="rect" id="2_20" width="64" height="64" x="621" y="235" style="fill: rgb(160, 160, 160); stroke: black; stroke-width: 1.77; opacity: 0.9;"></rect><rect class="rect" id="2_21" width="64" height="64" x="627" y="241" style="fill: rgb(224, 224, 224); stroke: black; stroke-width: 1.77; opacity: 0.9;"></rect><rect class="rect" id="2_22" width="64" height="64" x="633" y="247" style="fill: rgb(160, 160, 160); stroke: black; stroke-width: 1.77; opacity: 0.9;"></rect><rect class="rect" id="2_23" width="64" height="64" x="639" y="253" style="fill: rgb(224, 224, 224); stroke: black; stroke-width: 1.77; opacity: 0.9;"></rect><rect class="rect" id="2_24" width="64" height="64" x="645" y="259" style="fill: rgb(160, 160, 160); stroke: black; stroke-width: 1.77; opacity: 0.9;"></rect><rect class="rect" id="2_25" width="64" height="64" x="651" y="265" style="fill: rgb(224, 224, 224); stroke: black; stroke-width: 1.77; opacity: 0.9;"></rect><rect class="rect" id="2_26" width="64" height="64" x="657" y="271" style="fill: rgb(160, 160, 160); stroke: black; stroke-width: 1.77; opacity: 0.9;"></rect><rect class="rect" id="2_27" width="64" height="64" x="663" y="277" style="fill: rgb(224, 224, 224); stroke: black; stroke-width: 1.77; opacity: 0.9;"></rect><rect class="rect" id="2_28" width="64" height="64" x="669" y="283" style="fill: rgb(160, 160, 160); stroke: black; stroke-width: 1.77; opacity: 0.9;"></rect><rect class="rect" id="2_29" width="64" height="64" x="675" y="289" style="fill: rgb(224, 224, 224); stroke: black; stroke-width: 1.77; opacity: 0.9;"></rect><rect class="rect" id="2_30" width="64" height="64" x="681" y="295" style="fill: rgb(160, 160, 160); stroke: black; stroke-width: 1.77; opacity: 0.9;"></rect><rect class="rect" id="2_31" width="64" height="64" x="687" y="301" style="fill: rgb(224, 224, 224); stroke: black; stroke-width: 1.77; opacity: 0.9;"></rect><rect class="rect" id="2_32" width="64" height="64" x="693" y="307" style="fill: rgb(160, 160, 160); stroke: black; stroke-width: 1.77; opacity: 0.9;"></rect><rect class="rect" id="2_33" width="64" height="64" x="699" y="313" style="fill: rgb(224, 224, 224); stroke: black; stroke-width: 1.77; opacity: 0.9;"></rect><rect class="rect" id="2_34" width="64" height="64" x="705" y="319" style="fill: rgb(160, 160, 160); stroke: black; stroke-width: 1.77; opacity: 0.9;"></rect><rect class="rect" id="2_35" width="64" height="64" x="711" y="325" style="fill: rgb(224, 224, 224); stroke: black; stroke-width: 1.77; opacity: 0.9;"></rect><rect class="rect" id="2_36" width="64" height="64" x="717" y="331" style="fill: rgb(160, 160, 160); stroke: black; stroke-width: 1.77; opacity: 0.9;"></rect><rect class="rect" id="2_37" width="64" height="64" x="723" y="337" style="fill: rgb(224, 224, 224); stroke: black; stroke-width: 1.77; opacity: 0.9;"></rect><rect class="rect" id="2_38" width="64" height="64" x="729" y="343" style="fill: rgb(160, 160, 160); stroke: black; stroke-width: 1.77; opacity: 0.9;"></rect><rect class="rect" id="2_39" width="64" height="64" x="735" y="349" style="fill: rgb(224, 224, 224); stroke: black; stroke-width: 1.77; opacity: 0.9;"></rect><rect class="rect" id="2_40" width="64" height="64" x="741" y="355" style="fill: rgb(160, 160, 160); stroke: black; stroke-width: 1.77; opacity: 0.9;"></rect><rect class="rect" id="2_41" width="64" height="64" x="747" y="361" style="fill: rgb(224, 224, 224); stroke: black; stroke-width: 1.77; opacity: 0.9;"></rect><rect class="rect" id="2_42" width="64" height="64" x="753" y="367" style="fill: rgb(160, 160, 160); stroke: black; stroke-width: 1.77; opacity: 0.9;"></rect><rect class="rect" id="2_43" width="64" height="64" x="759" y="373" style="fill: rgb(224, 224, 224); stroke: black; stroke-width: 1.77; opacity: 0.9;"></rect><rect class="rect" id="2_44" width="64" height="64" x="765" y="379" style="fill: rgb(160, 160, 160); stroke: black; stroke-width: 1.77; opacity: 0.9;"></rect><rect class="rect" id="2_45" width="64" height="64" x="771" y="385" style="fill: rgb(224, 224, 224); stroke: black; stroke-width: 1.77; opacity: 0.9;"></rect><rect class="rect" id="2_46" width="64" height="64" x="777" y="391" style="fill: rgb(160, 160, 160); stroke: black; stroke-width: 1.77; opacity: 0.9;"></rect><rect class="rect" id="2_47" width="64" height="64" x="783" y="397" style="fill: rgb(224, 224, 224); stroke: black; stroke-width: 1.77; opacity: 0.9;"></rect><rect class="rect" id="2_48" width="64" height="64" x="789" y="403" style="fill: rgb(160, 160, 160); stroke: black; stroke-width: 1.77; opacity: 0.9;"></rect><rect class="rect" id="2_49" width="64" height="64" x="795" y="409" style="fill: rgb(224, 224, 224); stroke: black; stroke-width: 1.77; opacity: 0.9;"></rect><rect class="rect" id="2_50" width="64" height="64" x="801" y="415" style="fill: rgb(160, 160, 160); stroke: black; stroke-width: 1.77; opacity: 0.9;"></rect><rect class="rect" id="2_51" width="64" height="64" x="807" y="421" style="fill: rgb(224, 224, 224); stroke: black; stroke-width: 1.77; opacity: 0.9;"></rect><rect class="rect" id="2_52" width="64" height="64" x="813" y="427" style="fill: rgb(160, 160, 160); stroke: black; stroke-width: 1.77; opacity: 0.9;"></rect><rect class="rect" id="2_53" width="64" height="64" x="819" y="433" style="fill: rgb(224, 224, 224); stroke: black; stroke-width: 1.77; opacity: 0.9;"></rect><rect class="rect" id="2_54" width="64" height="64" x="825" y="439" style="fill: rgb(160, 160, 160); stroke: black; stroke-width: 1.77; opacity: 0.9;"></rect><rect class="rect" id="2_55" width="64" height="64" x="831" y="445" style="fill: rgb(224, 224, 224); stroke: black; stroke-width: 1.77; opacity: 0.9;"></rect><rect class="rect" id="2_56" width="64" height="64" x="837" y="451" style="fill: rgb(160, 160, 160); stroke: black; stroke-width: 1.77; opacity: 0.9;"></rect><rect class="rect" id="2_57" width="64" height="64" x="843" y="457" style="fill: rgb(224, 224, 224); stroke: black; stroke-width: 1.77; opacity: 0.9;"></rect><rect class="rect" id="2_58" width="64" height="64" x="849" y="463" style="fill: rgb(160, 160, 160); stroke: black; stroke-width: 1.77; opacity: 0.9;"></rect><rect class="rect" id="2_59" width="64" height="64" x="855" y="469" style="fill: rgb(224, 224, 224); stroke: black; stroke-width: 1.77; opacity: 0.9;"></rect><rect class="rect" id="2_60" width="64" height="64" x="861" y="475" style="fill: rgb(160, 160, 160); stroke: black; stroke-width: 1.77; opacity: 0.9;"></rect><rect class="rect" id="2_61" width="64" height="64" x="867" y="481" style="fill: rgb(224, 224, 224); stroke: black; stroke-width: 1.77; opacity: 0.9;"></rect><rect class="rect" id="2_62" width="64" height="64" x="873" y="487" style="fill: rgb(160, 160, 160); stroke: black; stroke-width: 1.77; opacity: 0.9;"></rect><rect class="rect" id="2_63" width="64" height="64" x="879" y="493" style="fill: rgb(224, 224, 224); stroke: black; stroke-width: 1.77; opacity: 0.9;"></rect><rect class="conv" id="conv_0" width="8" height="8" x="153.7450281199728" y="382.266839203628" style="fill-opacity: 0; stroke: black; stroke-width: 1.77; stroke-opacity: 0.9;"></rect><rect class="conv" id="conv_1" width="16" height="16" x="552.2214131179961" y="505.09322354565535" style="fill-opacity: 0; stroke: black; stroke-width: 1.77; stroke-opacity: 0.9;"></rect><line class="link" id="conv_0" x1="161.7450281199728" y1="390.266839203628" x2="565.5280299946377" y2="479.4179618172032" style="stroke: black; stroke-width: 0.885; stroke-opacity: 0.9;"></line><line class="link" id="conv_0" x1="161.7450281199728" y1="382.266839203628" x2="565.5280299946377" y2="479.4179618172032" style="stroke: black; stroke-width: 0.885; stroke-opacity: 0.9;"></line><line class="link" id="conv_1" x1="568.2214131179961" y1="521.0932235456553" x2="924.2693789245691" y2="518.1961277403745" style="stroke: black; stroke-width: 0.885; stroke-opacity: 0.9;"></line><line class="link" id="conv_1" x1="568.2214131179961" y1="505.09322354565535" x2="924.2693789245691" y2="518.1961277403745" style="stroke: black; stroke-width: 0.885; stroke-opacity: 0.9;"></line><polygon class="poly" id="fc_0" points="894,336 904,336 904,336 894,336" style="fill: rgb(224, 224, 224); stroke: black; stroke-width: 1.77; opacity: 0.9;"></polygon><line class="line" id="fc_0" x1="943" y1="557" x2="894" y2="336" style="stroke: black; stroke-width: 0.885; stroke-opacity: 0.9;"></line><line class="line" id="fc_0" x1="565" y1="115" x2="894" y2="336" style="stroke: black; stroke-width: 0.885; stroke-opacity: 0.9;"></line><text class="text" dy=".35em" font-family="sans-serif" x="256.5" y="685" style="font-size: 16px;">Conv</text><text class="text" dy=".35em" font-family="sans-serif" x="646.5" y="685" style="font-size: 16px;">Max-Pool</text><text class="text" dy=".35em" font-family="sans-serif" x="903.5" y="685" style="font-size: 16px;"></text><text class="info" dy="-0.3em" font-family="sans-serif" x="-119" y="164" style="font-size: 16px;">32@128x128</text><text class="info" dy="-0.3em" font-family="sans-serif" x="95" y="68" style="font-size: 16px;">64@128x128</text><text class="info" dy="-0.3em" font-family="sans-serif" x="501" y="100" style="font-size: 16px;">64@64x64</text><text class="info" dy="-0.3em" font-family="sans-serif" x="894" y="321" style="font-size: 16px;">1x0</text></g></svg>